{"title":"Transformers.3.Dark.of.the.Moon.2011.PPV.x264-OptimuS","uid":6650347,"size":732554947,"categoryP":"video","categoryS":"movies","magnet":"?xt=urn:btih:c153d7c3534d0aff781d55311210dcc57f000203&amp;dn=Transformers.3.Dark.of.the.Moon.2011.PPV.x264-OptimuS&amp;tr=udp%3A%2F%2Ftracker.openbittorrent.com%3A80&amp;tr=udp%3A%2F%2Fopen.demonii.com%3A1337&amp;tr=udp%3A%2F%2Ftracker.coppersurfer.tk%3A6969&amp;tr=udp%3A%2F%2Fexodus.desync.com%3A6969","seeders":0,"leechers":0,"uploader":"ovy89","files":51,"time":1315123953,"description":"General\nUnique ID                        : 246647185215707138994555391860591846800 (0xB98E851CCAA8B3DD9305BD8711406590)\nComplete name                    : C:\\\\temp\\\\Transformers.3.Dark.of.the.Moon.2011.PPV.x264-OptimuS\\\\Transformers.3.Dark.of.the.Moon.2011.PPV.x264-OptimuS.mkv\nFormat                           : Matroska\nFormat version                   : Version 2\nFile size                        : 699 MiB\nDuration                         : 2h 34mn\nOverall bit rate                 : 633 Kbps\nEncoded date                     : UTC 2011-09-04 04:36:40\nWriting application              : mkvmerge v4.7.0 (\\'Just Like You Imagined\\') built on Apr 21 2011 01:13:14\nWriting library                  : libebml v1.2.0 + libmatroska v1.1.0\n\nVideo\nID                               : 1\nFormat                           : AVC\nFormat/Info                      : Advanced Video Codec\nFormat profile                   : &lt;a class=&quot;__cf_email__&quot; href=&quot;/cdn-cgi/l/email-protection&quot; data-cfemail=&quot;2169484649616d150f10&quot;&gt;[email&amp;#160;protected]&lt;/a&gt;&lt;script data-cfhash='f9e31' type=&quot;text/javascript&quot;&gt;\n/* &lt;![CDATA[ */!function(){try{var t=&quot;currentScript&quot;in document?document.currentScript:function(){for(var t=document.getElementsByTagName(&quot;script&quot;),e=t.length;e--;)if(t[e].getAttribute(&quot;data-cfhash&quot;))return t[e]}();if(t&amp;&amp;t.previousSibling){var e,r,n,i,c=t.previousSibling,a=c.getAttribute(&quot;data-cfemail&quot;);if(a){for(e=&quot;&quot;,r=parseInt(a.substr(0,2),16),n=2;a.length-n;n+=2)i=parseInt(a.substr(n,2),16)^r,e+=String.fromCharCode(i);e=document.createTextNode(e),c.parentNode.replaceChild(e,c)}t.parentNode.removeChild(t);}}catch(u){}}()/* ]]&gt; */&lt;/script&gt;\nFormat settings, CABAC           : Yes\nFormat settings, ReFrames        : 4 frames\nCodec ID                         : V_MPEG4/ISO/AVC\nDuration                         : 2h 34mn\nBit rate                         : 567 Kbps\nWidth                            : 544 pixels\nHeight                           : 416 pixels\nDisplay aspect ratio             : 4:3\nFrame rate                       : 23.976 fps\nColor space                      : YUV\nChroma subsampling               : 4:2:0\nBit depth                        : 8 bits\nScan type                        : Progressive\nBits/(Pixel*Frame)               : 0.104\nStream size                      : 614 MiB (88%)\nWriting library                  : x264 core 116 r2057 0ba8a9c\nEncoding settings                : cabac=1 / ref=3 / deblock=1:0:0 / analyse=0x3:0x113 / me=hex / subme=6 / psy=1 / psy_rd=1.00:0.00 / mixed_ref=1 / me_range=16 / chroma_me=1 / trellis=1 / 8x8dct=1 / cqm=0 / deadzone=21,11 / fast_pskip=1 / chroma_qp_offset=-2 / threads=6 / sliced_threads=0 / nr=0 / decimate=1 / interlaced=0 / bluray_compat=0 / constrained_intra=0 / bframes=3 / b_pyramid=2 / b_adapt=1 / b_bias=0 / direct=1 / weightb=1 / open_gop=0 / weightp=2 / keyint=250 / keyint_min=23 / scenecut=40 / intra_refresh=0 / rc_lookahead=40 / rc=2pass / mbtree=1 / bitrate=567 / ratetol=1.0 / qcomp=0.60 / qpmin=0 / qpmax=69 / qpstep=4 / cplxblur=20.0 / qblur=0.5 / ip_ratio=1.40 / aq=1:1.00\n\nAudio\nID                               : 2\nFormat                           : AC-3\nFormat/Info                      : Audio Coding 3\nMode extension                   : CM (complete main)\nCodec ID                         : A_AC3\nDuration                         : 2h 34mn\nBit rate mode                    : Constant\nBit rate                         : 64.0 Kbps\nChannel(s)                       : 2 channels\nChannel positions                : Front: L R\nSampling rate                    : 48.0 KHz\nBit depth                        : 16 bits\nCompression mode                 : Lossy\nStream size                      : 70.7 MiB (10%)\nLanguage                         : English\n\n\n","torrent":{"xt":"urn:btih:c153d7c3534d0aff781d55311210dcc57f000203","amp;dn":"Transformers.3.Dark.of.the.Moon.2011.PPV.x264-OptimuS","amp;tr":["udp%3A%2F%2Ftracker.openbittorrent.com%3A80","udp%3A%2F%2Fopen.demonii.com%3A1337","udp%3A%2F%2Ftracker.coppersurfer.tk%3A6969","udp%3A%2F%2Fexodus.desync.com%3A6969"],"infoHash":"c153d7c3534d0aff781d55311210dcc57f000203","infoHashBuffer":{"type":"Buffer","data":[193,83,215,195,83,77,10,255,120,29,85,49,18,16,220,197,127,0,2,3]},"announce":[],"urlList":[]}}